<svg xmlns="http://www.w3.org/2000/svg" width="109px" height="46px" viewBox="0 0 109 46" version="1.1" xmlns:xlink="http://www.w3.org/1999/xlink"><title id="qx5626g8edunq0o4f3x7zrxlcjjcwad">Logo Human Talks</title>
<desc id="d0ju30j4tgy79fupga06lgkggj22uez">Logo Human Talks</desc>
<defs></defs>
<g id="Welcome" stroke="none" stroke-width="1" fill="none" fill-rule="evenodd">
<g id="Logos" fill="#ffffff">
<g id="Human_logo">
<path d="M7.3021966,24.3197204 C4.87622404,24.5503738 3.28296207,24.6656469 2.52297532,24.6656469 C1.50393811,24.6656469 0.751856132,24.4278023 0.266842301,23.9512544 C0.0889850754,23.7821013 0,23.5591757 0,23.2824774 C0,23.0519312 0.0485578457,22.8212777 0.145560612,22.5907316 C0.25882461,22.3449445 0.60629552,22.0682462 1.18853797,21.760744 C1.57677488,21.5455461 1.90809749,21.3305629 2.18340918,21.1150431 C2.65216178,20.7614961 2.99184085,20.5847225 3.20210761,20.5847225 C3.26658791,20.5847225 3.42852268,20.6387098 3.68734729,20.7461478 C3.96209436,20.8693633 4.14830805,20.9229213 4.24542374,20.907573 C6.39608461,20.6769195 7.51189873,20.5310572 7.59297904,20.4694495 C7.72239135,20.3927081 7.81950704,19.9545846 7.88421319,19.1551862 L8.87885855,8.47954731 C8.87885855,7.64945239 8.89895924,7.11537529 8.93961232,6.87699401 C8.9798137,6.63882739 9.1051607,6.35805053 9.31565331,6.03552205 C9.76803176,5.32853534 10.2939245,4.73660704 10.8924282,4.25984448 C11.3450325,3.90651212 11.7416259,3.72963128 12.0809662,3.72963128 C12.5016126,3.72963128 12.8897366,3.91413259 13.245564,4.28292056 C13.5852431,4.63678957 13.7550826,5.00568487 13.7550826,5.38982112 C13.7550826,5.63571554 13.6740023,6.08950935 13.5125192,6.7500219 C13.4474743,7.05773876 13.3669586,7.71857331 13.2698429,8.73295488 C13.2373204,9.02532345 13.1402048,9.7860828 12.9787217,11.0157696 L11.8386286,19.9390216 L25.0357477,18.92464 L25.4481506,10.6931338 C25.674114,6.11258543 26.030506,3.36867845 26.515181,2.46141282 C26.8064152,1.92357915 27.2996726,1.36266939 27.995179,0.778254235 C28.5128282,0.316947284 28.9899373,0.086401139 29.4266191,0.086401139 C30.3486536,0.086401139 30.8096143,0.6785441 30.8096143,1.86207871 C30.8096143,2.44617187 30.4699353,4.92851416 29.7905771,9.3095349 C29.4508981,11.5540326 29.2487619,14.7591392 29.1840558,18.92464 C30.1383868,19.3245539 30.6154959,19.8623876 30.6154959,20.5385704 C30.6154959,20.8462872 30.5265108,21.0843465 30.3486536,21.2534996 C30.3000957,21.2996517 30.1222385,21.3996838 29.814856,21.5532739 C29.3457647,21.7838201 29.111219,22.3065202 29.111219,23.1210521 C29.111219,23.1984375 29.1759251,23.8744057 29.3053374,25.1499226 C29.3700436,25.9338654 29.4913253,26.4182484 29.6692954,26.6027497 L30.2758168,27.2714194 C30.340523,27.3328125 30.3729325,27.4174963 30.3729325,27.5250416 C30.3729325,27.7556951 30.2394549,28.1515304 29.9726126,28.7126548 C29.7056574,29.2737792 29.4104708,29.7772671 29.087053,30.2231184 C28.5046976,31.0066319 27.9224552,31.3986032 27.3400998,31.3986032 C26.6122967,31.3986032 26.0866298,31.014789 25.7635508,30.2461945 C25.3754268,29.2929914 25.1570294,27.8709682 25.1085845,25.9800175 L25.0357477,23.2363252 C25.0357477,22.8986631 24.6799203,22.7290808 23.9682656,22.7290808 L23.726041,22.7290808 L12.4692031,23.7206009 C12.0163729,23.7667531 11.7173469,23.8513296 11.5717863,23.9742231 C11.4746706,24.0665275 11.4262257,24.2505994 11.4262257,24.5272978 L11.4262257,26.879448 C11.4262257,28.58579 11.6445102,29.9310718 12.0809662,30.9144349 C12.129524,31.0225168 12.3722003,31.3607155 12.8088822,31.9291384 C12.9059978,32.0516027 12.9544428,32.2130279 12.9544428,32.4133068 C12.9544428,32.8432732 12.7035229,33.4352015 12.2023608,34.1884477 C11.7979756,34.7726482 11.4340176,35.1800752 11.1108256,35.4106213 C10.852001,35.5797744 10.5123219,35.6642436 10.0917884,35.6642436 C9.20216347,35.6642436 8.46645564,34.9418013 7.88421319,33.496702 C7.46334089,32.4206053 7.26143059,30.922592 7.27791767,29.0008375 L7.3021966,24.3197204" id="Fill-1"></path>
<path d="M33.1873678,23.2824774 L33.623485,18.5325613 L33.6963218,17.8638916 L33.647764,15.9040348 C33.647764,14.9971985 33.9060239,14.1826665 34.4241249,13.4599022 C35.0706218,12.5686288 35.8146861,12.1226701 36.6557531,12.1226701 C37.4645236,12.1226701 37.8689088,12.8297642 37.8689088,14.2438449 C37.8689088,14.8588493 37.6585291,16.0041742 37.2381085,17.6793903 C36.817462,19.2935353 36.6071953,20.9154081 36.6071953,22.5445794 C36.6071953,25.2964289 36.8902988,26.9256002 37.4563929,27.4328446 C37.7313659,27.7095429 38.0629143,27.8478921 38.4511512,27.8478921 C39.3084795,27.8478921 40.2142527,26.8409163 41.1684709,24.8270721 C41.9605284,23.1672043 42.4620293,21.0612704 42.6727477,18.5094853 C42.7531505,17.5567114 42.947156,16.8648584 43.2545385,16.4343553 C43.7554748,15.7426095 44.3948574,15.2201241 45.1707666,14.8665771 C45.5104457,14.6974241 45.7854186,14.6128475 45.9956853,14.6128475 C46.7073401,14.6128475 47.0632804,15.6198233 47.0632804,17.6332382 C47.0632804,18.0944378 47.0470192,18.4403643 47.0147226,18.6709105 L46.7234884,21.2996517 C46.5940761,22.2526402 46.5294829,22.875587 46.5294829,23.1672043 C46.5294829,23.6437522 46.6022067,24.3049087 46.7477673,25.1499226 C46.9580341,26.287949 47.2168587,27.0100694 47.5242412,27.3175716 C47.6698018,27.4559207 47.8800685,27.5250416 48.1550415,27.5250416 L48.4218838,27.5250416 C48.6968567,27.4942377 48.8748268,27.4789968 48.9555684,27.4789968 C49.0850936,27.4789968 49.1982447,27.5403899 49.2953604,27.6634981 C49.5703333,28.0169378 49.7077633,28.5013208 49.7077633,29.1162179 C49.7077633,30.0386171 49.4327903,30.7688946 48.8828445,31.3064063 C48.3814565,31.7834908 47.7668045,32.0213354 47.0390015,32.0213354 C46.5860584,32.0213354 46.1736555,31.9060624 45.8015669,31.6754089 C44.7017881,30.999548 43.9900205,30.0539654 43.6669414,28.8395196 C43.4729359,28.1476665 43.2216773,27.8018473 42.9148594,27.8018473 C42.6075899,27.8018473 42.219353,28.2476986 41.7508262,29.139294 C41.3949989,29.8310397 40.7399196,30.4537719 39.7855886,31.0066319 C38.6695486,31.6523328 37.6505114,31.9751833 36.7285899,31.9751833 C35.6448465,31.9751833 34.747091,31.3294823 34.0360009,30.0386171 C33.4213489,28.9163683 33.1145311,27.2560711 33.1145311,25.0576183 C33.1145311,24.4120247 33.13881,23.8210624 33.1873678,23.2824774" id="Fill-2"></path>
<path d="M64.6272178,23.9512544 L66.9796761,19.8697934 C67.642773,18.7170626 68.2736862,17.7333776 68.8720769,16.918631 C69.6969957,15.8274007 70.5704723,15.2813026 71.4923938,15.2813026 C72.5760242,15.2813026 73.2473647,15.8578826 73.5061893,17.0109353 C73.7154397,17.9791647 73.8125554,18.8477913 73.7973105,19.6163858 L73.7001948,25.9569414 C73.6840465,27.0331454 73.8610004,27.8940442 74.2339924,28.5397452 C74.4119625,28.8472474 74.6373613,29.0469896 74.9133505,29.139294 C74.9446308,29.1546422 75.1711588,29.2007944 75.5916923,29.2776431 C75.7372529,29.3236879 75.8100897,29.4774927 75.8100897,29.7387354 C75.8100897,30.5383484 75.5025943,31.2070181 74.8890716,31.7446371 C74.3876836,32.1746035 73.7487527,32.3903381 72.9723918,32.3903381 C71.193142,32.3903381 70.3035171,30.3538471 70.3035171,26.2798992 L70.3035171,25.9569414 L70.3763538,21.8988785 C70.3763538,21.407197 70.1579565,21.1611952 69.7212746,21.1611952 C69.3330377,21.1611952 68.9529314,21.6147744 68.5809557,22.5215034 L66.8098365,26.879448 C66.5671602,27.5096933 66.3811724,28.0169378 66.251873,28.401396 C65.8473749,29.5543414 65.5158264,30.2999671 65.2580181,30.6381659 C64.545347,31.4990647 63.713314,31.9291384 62.7590959,31.9291384 C62.3547106,31.9291384 62.0554588,31.8441326 61.8613403,31.6754089 C61.2305401,31.1531381 60.9474365,30.3154228 61.0121427,29.1622627 L61.0121427,28.9778687 L61.1819822,23.4439026 C61.0687182,21.8148386 60.9878638,20.8998452 60.9394188,20.6999956 C60.8745998,20.4694495 60.7372827,20.3466633 60.526903,20.330993 C60.4299002,20.3159667 60.2437995,20.4694495 59.9689395,20.7922999 C59.6938536,21.1150431 59.4432726,21.4689121 59.2167446,21.8530483 L58.3918258,23.3286295 C57.8419929,24.2966443 57.3889369,25.6192794 57.0342388,27.2944955 C56.597444,29.2776431 56.2416166,30.4767407 55.9666437,30.8913588 C55.7402287,31.2142093 55.3762707,31.5183842 54.8747698,31.8022737 C54.3731559,32.0862704 53.9364741,32.2289128 53.5643855,32.2289128 C53.0311526,32.2289128 52.5858884,31.829643 52.2305127,31.0297079 C51.9879494,30.5075445 51.8822514,30.0078132 51.9151126,29.5312653 L52.5217469,20.9766939 L52.7885892,18.0944378 C52.7885892,17.848758 52.7071701,17.1031323 52.5459129,15.8578826 C52.480755,15.4427278 52.4489101,15.0509711 52.4489101,14.6819685 C52.4489101,13.9290442 52.7557279,13.2371912 53.3708316,12.6068385 C53.9364741,12.0072897 54.5349778,11.7075153 55.1660039,11.7075153 C56.2658956,11.7075153 56.8158414,12.3916406 56.8158414,13.7596765 C56.8158414,14.712987 56.5812957,16.4422978 56.1122043,18.9476088 L55.869528,20.8383448 C55.8372314,21.0381944 55.8209702,21.1996196 55.8209702,21.3226205 C55.8209702,21.6303373 55.8857893,21.7760923 56.0152016,21.760744 C56.0797948,21.7456104 56.3144534,21.4609696 56.7188386,20.907573 L58.8527866,17.9791647 C60.0982388,16.2729301 61.2385577,15.4196517 62.2738562,15.4196517 C62.8076537,15.4196517 63.2766322,15.6503052 63.6810174,16.1115048 C64.1986666,16.7265092 64.4655089,17.4029067 64.4816572,18.14059 L64.6272178,23.9512544" id="Fill-3"></path>
<path d="M84.4715672,13.9209945 C83.5982035,13.9209945 82.7894331,14.5515618 82.0453688,15.8117304 C80.9131805,17.7486186 80.3470864,20.1464917 80.3470864,23.0057791 C80.3470864,26.6027497 81.2124323,28.401396 82.9431243,28.401396 C83.8811941,28.401396 84.6899646,28.0016968 85.3692098,27.2022985 C86.0638128,26.3874445 86.614775,25.449697 87.0191602,24.3889486 C87.2132787,23.8513296 87.3102814,23.544364 87.3102814,23.4669787 L87.2132787,21.9450307 C87.2132787,21.8988785 87.3588393,21.6223949 87.6499605,21.1150431 C87.9077688,20.6695137 88.0370682,20.2543589 88.0370682,19.8697934 C88.0370682,19.6548102 87.9239171,19.0860653 87.6984054,18.163666 C87.3102814,16.5957805 86.8250418,15.5044429 86.2427993,14.8895459 C85.6442956,14.2438449 85.0539226,13.9209945 84.4715672,13.9209945 L84.4715672,13.9209945 Z M92.3073355,27.7556951 L92.865299,27.7556951 C93.4151319,27.7556951 93.6902177,28.047849 93.6902177,28.6319422 C93.6902177,29.308447 93.4313931,30.0001928 92.9138568,30.7073941 C92.3153532,31.5067925 91.6198467,31.9060624 90.8272246,31.9060624 C90.3258366,31.9060624 89.8891548,31.7526869 89.5170661,31.4447554 C89.4362117,31.3837916 89.0561054,30.8841676 88.3767472,29.9464201 C88.1665934,29.6389179 87.9563266,29.4851132 87.7469633,29.4851132 C87.519419,29.4851132 87.1960011,29.7157666 86.7764839,30.1769663 C85.385471,31.6682177 83.9136037,32.4133068 82.3608819,32.4133068 C81.0506105,32.4133068 79.9427011,31.9670261 79.036815,31.0758601 C77.5487993,29.6465384 76.8057514,27.3637237 76.8057514,24.2275234 C76.8057514,20.0161923 77.9703492,16.4035514 80.2985285,13.3906739 C81.0748894,12.3916406 81.9322177,11.5617604 82.8704005,10.9003892 C83.9216214,10.1627059 84.884083,9.79370327 85.7574467,9.79370327 C86.743058,9.79370327 87.8025225,10.2859214 88.9348237,11.2693918 C89.8405969,12.0687902 90.5684,13.4293129 91.1184587,15.3505308 C91.749259,17.5641173 92.0646592,19.0478556 92.0646592,19.8006725 C92.0646592,20.2005863 91.9189856,20.9459974 91.6278644,22.0372277 C91.3690398,23.0519312 91.2397404,23.9363354 91.2397404,24.688723 C91.2397404,26.7333711 91.5955678,27.7556951 92.3073355,27.7556951 L92.3073355,27.7556951 Z" id="Fill-4"></path>
<path d="M97.6439556,24.6194947 L99.8517567,21.0228461 C101.453036,18.3942122 102.851164,17.0800562 104.049074,17.0800562 C105.358216,17.0800562 106.029557,18.2097109 106.061966,20.4694495 L106.110411,26.5796736 C106.12656,27.8094677 106.579503,28.493593 107.469128,28.6319422 C107.986664,28.7241392 108.245488,28.9317166 108.245488,29.254567 C108.245488,30.2077702 107.841103,30.999548 107.032333,31.6292567 C106.644209,31.9363296 106.150839,32.0905637 105.552335,32.0905637 C104.825435,32.0905637 104.282717,31.7677132 103.927793,31.1219049 C103.571965,30.5075445 103.34555,29.7080388 103.248547,28.7241392 C103.19999,28.1245904 103.175711,26.9639172 103.175711,25.2421196 C103.175711,23.2445897 103.111004,22.0989428 102.981592,21.8068962 C102.899721,21.6377431 102.795604,21.5532739 102.666192,21.5532739 C102.439664,21.5532739 102.148543,21.7492596 101.792715,22.1410164 C101.436888,22.5330951 101.121488,22.9981586 100.846515,23.5360996 C99.8113294,25.5962033 99.1481196,27.1714946 98.8569984,28.2629395 C98.3556104,30.0463449 97.8785013,31.1148211 97.4255583,31.4678315 C97.021173,31.775763 96.5279157,31.9291384 95.9456732,31.9291384 C95.4926172,31.9291384 95.1701028,31.8441326 94.9760973,31.6754089 C94.5545474,31.2602541 94.345297,30.3999993 94.345297,29.0931418 C94.345297,28.8164435 94.3605419,28.5166691 94.3937419,28.1938186 L95.4613369,17.8177395 C95.2186606,17.5567114 95.0973789,17.3336784 95.0973789,17.1492845 C95.0973789,16.3961456 95.5493057,15.6198233 96.4550789,14.8204249 C96.9726152,14.3440917 97.5064127,14.1054958 98.0563586,14.1054958 C98.7681262,14.1054958 99.1238407,14.4824409 99.1238407,15.2352577 C99.1238407,15.7581725 99.0835264,16.3421583 99.002559,16.9878592 C98.9702624,17.1877088 98.751865,17.9178789 98.3474798,19.1782623 L97.6439556,24.6194947" id="Fill-5"></path>
<path d="M34.1295009,39.7818318 L34.1295009,38.8119626 L38.948938,38.8119626 L38.948938,39.7818318 L37.106212,39.7818318 L37.106212,45.5700935 L35.9722269,45.5700935 L35.9722269,39.7818318 L34.1295009,39.7818318 Z M43.4648887,45.5700935 L45.1985776,38.8119626 L47.2375702,38.8119626 L48.9167406,45.5700935 L47.7173332,45.5700935 L47.3793183,44.2803738 L44.9586961,44.2803738 L44.6424887,45.5700935 L43.4648887,45.5700935 Z M47.1394369,43.3208224 L46.3325628,39.771514 L46.0926813,39.771514 L45.1876739,43.3208224 L47.1394369,43.3208224 Z M57.8923061,44.6002243 L57.8923061,45.5700935 L53.847032,45.5700935 L53.847032,38.8119626 L54.9810172,38.8119626 L54.9810172,44.6002243 L57.8923061,44.6002243 Z M63.3350717,45.5700935 L63.3350717,38.8119626 L64.4690569,38.8119626 L64.4690569,41.7525234 L65.0469531,41.6802991 C65.504911,41.0062022 65.9810346,40.2048645 66.4753383,39.2762617 L66.7261235,38.8119626 L67.9473383,38.8119626 C67.2204211,40.1807919 66.56984,41.271024 65.9955754,42.0826916 C66.2063814,42.3991044 66.4826058,42.8462027 66.8242569,43.424 L68.0454717,45.5700935 L66.8024494,45.5700935 C66.0828014,44.2218998 65.5267181,43.2520403 65.1341828,42.660486 L64.4690569,42.7327103 L64.4690569,45.5700935 L63.3350717,45.5700935 Z M72.8449187,40.6175701 C72.8449187,39.3450404 73.6517847,38.708785 75.2655409,38.708785 C75.8325364,38.708785 76.479483,38.8291577 77.2064002,39.0699065 L76.955615,40.0088224 C76.2141594,39.7887092 75.6308171,39.6769346 75.2055706,39.6734953 C74.780324,39.6700561 74.4732061,39.7371208 74.2842076,39.8746916 C74.0952091,40.0122624 74.0007113,40.2530076 74.0007113,40.5969346 C74.0007113,40.8308049 74.1061127,41.0285599 74.3169187,41.1902056 C74.5277247,41.3518513 74.8839088,41.4945788 75.3854817,41.6183925 C76.1487447,41.8109916 76.6721173,42.0586153 76.955615,42.361271 C77.2391127,42.6639267 77.3808594,43.1144643 77.3808594,43.7128972 C77.3808594,45.0129411 76.5594553,45.6629533 74.9166224,45.6629533 C74.3714345,45.6629533 73.684508,45.5528983 72.8558224,45.332785 L73.0848002,44.3525981 C73.0848002,44.3594767 73.1974707,44.3904296 73.422815,44.4454579 C74.1279247,44.6174214 74.6749217,44.7034019 75.0638224,44.7034019 C75.4527231,44.7034019 75.7434856,44.610543 75.9361187,44.4248224 C76.1287518,44.2391019 76.2250668,44.0052351 76.2250668,43.723215 C76.2250668,43.4411949 76.1432899,43.2245241 75.9797335,43.0731963 C75.8161771,42.9218684 75.5163283,42.7877389 75.080178,42.6708037 C74.2951074,42.4644476 73.7263032,42.2099454 73.3737483,41.9072897 C73.0211935,41.604634 72.8449187,41.1747318 72.8449187,40.6175701 Z" id="TALKS"></path>
</g>
</g>
</g>
</svg>